<?xml version="1.0" encoding="UTF-8"?>
<!DOCTYPE svg PUBLIC "-//W3C//DTD SVG 1.1//EN" "http://www.w3.org/Graphics/SVG/1.1/DTD/svg11.dtd">
<svg xmlns="http://www.w3.org/2000/svg" version="1.1" width="3464px" height="1949px" style="shape-rendering:geometricPrecision; text-rendering:geometricPrecision; image-rendering:optimizeQuality; fill-rule:evenodd; clip-rule:evenodd" xmlns:xlink="http://www.w3.org/1999/xlink">
<g><path style="opacity:0.999" fill="#000000" d="M 624.5,207.5 C 1357.83,207.333 2091.17,207.5 2824.5,208C 2996.46,218.74 3140.29,287.24 3256,413.5C 3347.87,518.647 3399.2,641.313 3410,781.5C 3411.63,903.824 3411.96,1026.16 3411,1148.5C 3401.87,1330.25 3329.03,1480.42 3192.5,1599C 3085.69,1687.18 2962.69,1735.18 2823.5,1743C 2090.83,1743.67 1358.17,1743.67 625.5,1743C 444.461,1731.4 295.294,1657.23 178,1520.5C 93.5272,1416.82 46.8605,1297.82 38,1163.5C 36.3992,1048.51 36.0658,933.507 37,818.5C 41.5387,638.305 109.372,487.138 240.5,365C 350.125,268.718 478.125,216.218 624.5,207.5 Z"/></g>
</svg>
